<svg width="26" height="26" viewBox="0 0 26 26" fill="none" xmlns="http://www.w3.org/2000/svg">
<path d="M8.34907 28.6695V11.3362C8.34907 10.505 8.64768 9.79939 9.24491 9.21928C9.84213 8.63914 10.5563 8.34907 11.3875 8.34907H28.6695C29.5007 8.34907 30.2106 8.64342 30.7993 9.23211C31.388 9.82078 31.6823 10.5307 31.6823 11.3619V23.8298L23.8298 31.6823H11.3619C10.5307 31.6823 9.82078 31.388 9.23211 30.7993C8.64342 30.2106 8.34907 29.5007 8.34907 28.6695ZM0.0574059 6.5542C-0.0985664 5.723 0.0632947 4.97407 0.542989 4.30741C1.02268 3.64074 1.67813 3.22942 2.50932 3.07345L19.5669 0.0574055C20.3981 -0.0985667 21.1471 0.0632967 21.8137 0.542991C22.4804 1.02269 22.8917 1.67813 23.0477 2.50932L23.4323 4.69524H11.3619C9.52857 4.69524 7.95913 5.34802 6.65357 6.65357C5.34802 7.95913 4.69524 9.52857 4.69524 11.3619V25.8041C4.28285 25.5861 3.93028 25.2875 3.63753 24.9083C3.34481 24.529 3.15678 24.0968 3.07345 23.6118L0.0574059 6.5542ZM29.1824 22.5157H22.5157V29.1824L29.1824 22.5157Z" fill="#B85AB4"/>
</svg>
