<svg width="22" height="24" viewBox="0 0 22 24" fill="none" xmlns="http://www.w3.org/2000/svg">
<path d="M10.1577 11.463L0.0903625 22.0107C0.203388 22.4113 0.406529 22.7809 0.684257 23.091C0.961985 23.4011 1.30695 23.6437 1.69277 23.8001C2.0786 23.9564 2.49507 24.0225 2.91035 23.9933C3.32564 23.964 3.72874 23.8402 4.08884 23.6313L15.4167 17.1796L10.1577 11.463Z" fill="#EA4335"/>
<path d="M20.3379 9.6699L15.4391 6.86426L9.92508 11.7031L15.4614 17.1644L20.3229 14.3887C20.7536 14.1632 21.1144 13.8241 21.3661 13.4082C21.6178 12.9923 21.7509 12.5154 21.7509 12.0293C21.7509 11.5431 21.6178 11.0663 21.3661 10.6504C21.1144 10.2345 20.7536 9.89538 20.3229 9.6699H20.3379Z" fill="#FBBC04"/>
<path d="M0.090146 1.99548C0.0294779 2.22056 -0.000833395 2.45273 1.74245e-05 2.68584V21.3206C0.000730843 21.5536 0.0309322 21.7855 0.090146 22.0107L10.5027 11.7334L0.090146 1.99548Z" fill="#4285F4"/>
<path d="M10.2328 12.003L15.4391 6.86428L4.12594 0.382873C3.70029 0.133537 3.21618 0.00143135 2.72288 5.06126e-06C2.12729 -0.00114141 1.54766 0.192515 1.07238 0.551447C0.597096 0.910379 0.252229 1.41489 0.0903625 1.98807L10.2328 12.003Z" fill="#34A853"/>
</svg>
