<svg width="23" height="25" viewBox="0 0 23 25" fill="none" xmlns="http://www.w3.org/2000/svg">
<path d="M21.5625 14.0625H19.6875V6.5625H21.5625C21.8111 6.5625 22.0496 6.46373 22.2254 6.28791C22.4012 6.1121 22.5 5.87364 22.5 5.625C22.5 5.37636 22.4012 5.1379 22.2254 4.96209C22.0496 4.78627 21.8111 4.6875 21.5625 4.6875H19.6875V1.875C19.6875 1.37772 19.49 0.900805 19.1383 0.549175C18.7867 0.197544 18.3098 0 17.8125 0H4.6875C4.19022 0 3.71331 0.197544 3.36167 0.549175C3.01004 0.900805 2.8125 1.37772 2.8125 1.875V4.6875H0.9375C0.68886 4.6875 0.450403 4.78627 0.274588 4.96209C0.0987722 5.1379 0 5.37636 0 5.625C0 5.87364 0.0987722 6.1121 0.274588 6.28791C0.450403 6.46373 0.68886 6.5625 0.9375 6.5625H2.8125V14.0625H0.9375C0.68886 14.0625 0.450403 14.1613 0.274588 14.3371C0.0987722 14.5129 0 14.7514 0 15C0 15.2486 0.0987722 15.4871 0.274588 15.6629C0.450403 15.8387 0.68886 15.9375 0.9375 15.9375H2.8125V22.5C2.8125 22.9973 3.01004 23.4742 3.36167 23.8258C3.71331 24.1775 4.19022 24.375 4.6875 24.375H17.8125C18.3098 24.375 18.7867 24.1775 19.1383 23.8258C19.49 23.4742 19.6875 22.9973 19.6875 22.5V15.9375H21.5625C21.8111 15.9375 22.0496 15.8387 22.2254 15.6629C22.4012 15.4871 22.5 15.2486 22.5 15C22.5 14.7514 22.4012 14.5129 22.2254 14.3371C22.0496 14.1613 21.8111 14.0625 21.5625 14.0625ZM11.25 10.7812C10.601 10.7812 9.96663 10.5888 9.42703 10.2283C8.88744 9.86771 8.46687 9.35525 8.21852 8.75568C7.97017 8.15611 7.90519 7.49636 8.0318 6.85986C8.15841 6.22336 8.47091 5.6387 8.92981 5.17981C9.3887 4.72091 9.97336 4.40841 10.6099 4.2818C11.2464 4.15519 11.9061 4.22017 12.5057 4.46852C13.1052 4.71687 13.6177 5.13744 13.9783 5.67703C14.3388 6.21663 14.5312 6.85103 14.5312 7.5C14.5312 8.37024 14.1855 9.20484 13.5702 9.82019C12.9548 10.4355 12.1202 10.7812 11.25 10.7812ZM11.25 13.5938C11.899 13.5938 12.5334 13.7862 13.073 14.1467C13.6126 14.5073 14.0331 15.0198 14.2815 15.6193C14.5298 16.2189 14.5948 16.8786 14.4682 17.5151C14.3416 18.1516 14.0291 18.7363 13.5702 19.1952C13.1113 19.6541 12.5266 19.9666 11.8901 20.0932C11.2536 20.2198 10.5939 20.1548 9.99432 19.9065C9.39475 19.6581 8.88229 19.2376 8.52174 18.698C8.16119 18.1584 7.96875 17.524 7.96875 16.875C7.96875 16.0048 8.31445 15.1702 8.92981 14.5548C9.54516 13.9395 10.3798 13.5938 11.25 13.5938Z" fill="#8A43D1"/>
</svg>
