<svg width="25" height="23" viewBox="0 0 25 23" fill="none" xmlns="http://www.w3.org/2000/svg">
<path d="M22.5 3.75H17.8125V2.8125C17.8125 2.06658 17.5162 1.35121 16.9887 0.823762C16.4613 0.296316 15.7459 0 15 0H9.375C8.62908 0 7.91371 0.296316 7.38626 0.823762C6.85882 1.35121 6.5625 2.06658 6.5625 2.8125V3.75H1.875C1.37772 3.75 0.900805 3.94754 0.549175 4.29917C0.197544 4.65081 0 5.12772 0 5.625V20.625C0 21.1223 0.197544 21.5992 0.549175 21.9508C0.900805 22.3025 1.37772 22.5 1.875 22.5H22.5C22.9973 22.5 23.4742 22.3025 23.8258 21.9508C24.1775 21.5992 24.375 21.1223 24.375 20.625V5.625C24.375 5.12772 24.1775 4.65081 23.8258 4.29917C23.4742 3.94754 22.9973 3.75 22.5 3.75ZM15 14.0625H13.125V15.9375C13.125 16.1861 13.0262 16.4246 12.8504 16.6004C12.6746 16.7762 12.4361 16.875 12.1875 16.875C11.9389 16.875 11.7004 16.7762 11.5246 16.6004C11.3488 16.4246 11.25 16.1861 11.25 15.9375V14.0625H9.375C9.12636 14.0625 8.8879 13.9637 8.71209 13.7879C8.53627 13.6121 8.4375 13.3736 8.4375 13.125C8.4375 12.8764 8.53627 12.6379 8.71209 12.4621C8.8879 12.2863 9.12636 12.1875 9.375 12.1875H11.25V10.3125C11.25 10.0639 11.3488 9.8254 11.5246 9.64959C11.7004 9.47377 11.9389 9.375 12.1875 9.375C12.4361 9.375 12.6746 9.47377 12.8504 9.64959C13.0262 9.8254 13.125 10.0639 13.125 10.3125V12.1875H15C15.2486 12.1875 15.4871 12.2863 15.6629 12.4621C15.8387 12.6379 15.9375 12.8764 15.9375 13.125C15.9375 13.3736 15.8387 13.6121 15.6629 13.7879C15.4871 13.9637 15.2486 14.0625 15 14.0625ZM15.9375 3.75H8.4375V2.8125C8.4375 2.56386 8.53627 2.3254 8.71209 2.14959C8.8879 1.97377 9.12636 1.875 9.375 1.875H15C15.2486 1.875 15.4871 1.97377 15.6629 2.14959C15.8387 2.3254 15.9375 2.56386 15.9375 2.8125V3.75Z" fill="#4352D1"/>
</svg>
