<svg width="21" height="25" viewBox="0 0 21 25" fill="none" xmlns="http://www.w3.org/2000/svg">
<path d="M18.75 0H1.875C1.37772 0 0.900805 0.197544 0.549175 0.549175C0.197544 0.900805 0 1.37772 0 1.875V22.5C0 22.9973 0.197544 23.4742 0.549175 23.8258C0.900805 24.1775 1.37772 24.375 1.875 24.375H18.75C19.2473 24.375 19.7242 24.1775 20.0758 23.8258C20.4275 23.4742 20.625 22.9973 20.625 22.5V1.875C20.625 1.37772 20.4275 0.900805 20.0758 0.549175C19.7242 0.197544 19.2473 0 18.75 0ZM6.5625 2.8125H14.0625C14.3111 2.8125 14.5496 2.91127 14.7254 3.08709C14.9012 3.2629 15 3.50136 15 3.75C15 3.99864 14.9012 4.2371 14.7254 4.41291C14.5496 4.58873 14.3111 4.6875 14.0625 4.6875H6.5625C6.31386 4.6875 6.0754 4.58873 5.89959 4.41291C5.72377 4.2371 5.625 3.99864 5.625 3.75C5.625 3.50136 5.72377 3.2629 5.89959 3.08709C6.0754 2.91127 6.31386 2.8125 6.5625 2.8125ZM16.5012 20.4375C16.4026 20.5115 16.2905 20.5654 16.1711 20.5961C16.0517 20.6268 15.9275 20.6336 15.8055 20.6162C15.6834 20.5987 15.5661 20.5574 15.46 20.4946C15.354 20.4318 15.2614 20.3487 15.1875 20.25C14.6199 19.4932 13.8839 18.8789 13.0377 18.4558C12.1916 18.0328 11.2585 17.8125 10.3125 17.8125C9.36648 17.8125 8.43344 18.0328 7.58729 18.4558C6.74114 18.8789 6.00512 19.4932 5.4375 20.25C5.36363 20.3485 5.27109 20.4315 5.16515 20.4942C5.05921 20.5569 4.94196 20.5982 4.82008 20.6156C4.69821 20.633 4.57409 20.6262 4.45483 20.5957C4.33557 20.5651 4.22349 20.5114 4.125 20.4375C4.02651 20.3636 3.94353 20.2711 3.88081 20.1651C3.81808 20.0592 3.77683 19.942 3.75942 19.8201C3.74201 19.6982 3.74878 19.5741 3.77933 19.4548C3.80989 19.3356 3.86363 19.2235 3.9375 19.125C4.76764 18.012 5.87464 17.1357 7.14844 16.5832C6.45037 15.9459 5.96129 15.1124 5.74539 14.1921C5.52949 13.2718 5.59686 12.3078 5.93866 11.4265C6.28045 10.5452 6.8807 9.78785 7.66063 9.2538C8.44056 8.71975 9.36373 8.43397 10.309 8.43397C11.2542 8.43397 12.1774 8.71975 12.9573 9.2538C13.7373 9.78785 14.3375 10.5452 14.6793 11.4265C15.0211 12.3078 15.0885 13.2718 14.8726 14.1921C14.6567 15.1124 14.1676 15.9459 13.4695 16.5832C14.7459 17.1347 15.8554 18.0111 16.6875 19.125C16.8368 19.3238 16.9011 19.5737 16.8661 19.8198C16.8312 20.066 16.6999 20.2881 16.5012 20.4375ZM13.125 13.125C13.125 13.6813 12.9601 14.225 12.651 14.6875C12.342 15.1501 11.9027 15.5105 11.3888 15.7234C10.8749 15.9363 10.3094 15.992 9.76381 15.8835C9.21824 15.7749 8.7171 15.5071 8.32376 15.1137C7.93043 14.7204 7.66256 14.2193 7.55404 13.6737C7.44552 13.1281 7.50122 12.5626 7.71409 12.0487C7.92696 11.5348 8.28745 11.0955 8.74996 10.7865C9.21247 10.4775 9.75624 10.3125 10.3125 10.3125C11.0584 10.3125 11.7738 10.6088 12.3012 11.1363C12.8287 11.6637 13.125 12.3791 13.125 13.125Z" fill="#03ACD4"/>
</svg>
